<svg xmlns="http://www.w3.org/2000/svg" viewBox="0 0 200 262" width="200" height="262">
  <title>Novelist</title>
  <defs>
    <radialGradient id="bg" cx="50%" cy="36%" r="78%">
      <stop offset="0" stop-color="#4a5a3a"/>
      <stop offset="1" stop-color="#080a06"/>
    </radialGradient>
    <radialGradient id="vig" cx="50%" cy="45%" r="72%">
      <stop offset=".55" stop-color="#000" stop-opacity="0"/>
      <stop offset="1" stop-color="#000" stop-opacity=".8"/>
    </radialGradient>
    <filter id="halo" x="-20%" y="-20%" width="140%" height="140%">
      <feGaussianBlur stdDeviation="3.5"/>
    </filter>
    <filter id="glow" x="-60%" y="-60%" width="220%" height="220%">
      <feGaussianBlur stdDeviation="3" result="b"/>
      <feMerge>
        <feMergeNode in="b"/>
        <feMergeNode in="SourceGraphic"/>
      </feMerge>
    </filter>
  </defs>
  <rect width="200" height="262" fill="url(#bg)"/>
  <rect x="20" y="40" width="22" height="28" fill="#efe6d6" opacity=".22" transform="rotate(-20 31 54)"/>
  <rect x="160" y="30" width="22" height="28" fill="#efe6d6" opacity=".22" transform="rotate(15 171 44)"/>
  <rect x="150" y="110" width="22" height="28" fill="#efe6d6" opacity=".22" transform="rotate(35 161 124)"/>
  <rect x="14" y="120" width="22" height="28" fill="#efe6d6" opacity=".22" transform="rotate(-40 25 134)"/>
  <rect x="60" y="12" width="22" height="28" fill="#efe6d6" opacity=".22" transform="rotate(8 71 26)"/>
  <g fill="#d6e6b0" opacity=".62" filter="url(#halo)">
    <path d="M14 262 C18 204 52 176 100 172 C148 176 182 204 186 262 Z"/>
    <path d="M86 136 L86 180 L114 180 L114 136 Z"/>
    <ellipse cx="100" cy="108" rx="27" ry="33"/>
    <path d="M72 96 C66 70 80 64 88 72 C92 60 112 60 116 72 C124 64 136 72 128 96 Z"/>
  </g>
  <g fill="#0b0a0f">
    <path d="M14 262 C18 204 52 176 100 172 C148 176 182 204 186 262 Z"/>
    <path d="M86 136 L86 180 L114 180 L114 136 Z"/>
    <ellipse cx="100" cy="108" rx="27" ry="33"/>
    <path d="M72 96 C66 70 80 64 88 72 C92 60 112 60 116 72 C124 64 136 72 128 96 Z"/>
  </g>
  <g fill="none" stroke="#e6c783" stroke-width="2.2" filter="url(#glow)">
    <circle cx="89" cy="112" r="9"/>
    <circle cx="111" cy="112" r="9"/>
    <path d="M98 112 L102 112"/>
  </g>
  <path d="M142 214 C150 172 166 142 184 118 C178 150 164 180 148 216 Z" fill="#efe6d6" filter="url(#glow)"/>
  <line x1="148" y1="214" x2="143" y2="228" stroke="#3a2a1a" stroke-width="2"/>
  <rect x="46" y="200" width="24" height="20" rx="3" fill="#10131a" stroke="#6a7f96"/>
  <rect x="52" y="194" width="12" height="7" fill="#10131a" stroke="#6a7f96"/>
  <rect width="200" height="262" fill="url(#vig)"/>
</svg>
