<svg xmlns="http://www.w3.org/2000/svg" viewBox="0 0 200 262" width="200" height="262">
  <title>Miss Dane, actress</title>
  <defs>
    <radialGradient id="bg" cx="50%" cy="36%" r="78%">
      <stop offset="0" stop-color="#6e5c44"/>
      <stop offset="1" stop-color="#0e0b07"/>
    </radialGradient>
    <radialGradient id="vig" cx="50%" cy="45%" r="72%">
      <stop offset=".5" stop-color="#000" stop-opacity="0"/>
      <stop offset="1" stop-color="#000" stop-opacity=".8"/>
    </radialGradient>
    <filter id="halo" x="-20%" y="-20%" width="140%" height="140%">
      <feGaussianBlur stdDeviation="3.5"/>
    </filter>
    <filter id="glow" x="-60%" y="-60%" width="220%" height="220%">
      <feGaussianBlur stdDeviation="2.5" result="b"/>
      <feMerge>
        <feMergeNode in="b"/>
        <feMergeNode in="SourceGraphic"/>
      </feMerge>
    </filter>
    <filter id="blur8" x="-50%" y="-50%" width="200%" height="200%">
      <feGaussianBlur stdDeviation="8"/>
    </filter>
    <filter id="grain">
      <feTurbulence type="fractalNoise" baseFrequency=".9" numOctaves="2" seed="3"/>
      <feColorMatrix values="0 0 0 0 .9  0 0 0 0 .8  0 0 0 0 .6  0 0 0 .07 0"/>
    </filter>
  </defs>
  <rect width="200" height="262" fill="url(#bg)"/>
  <circle cx="150" cy="60" r="44" fill="#ffe6b0" opacity=".2" filter="url(#blur8)"/>
  <g fill="#ead9b6" opacity=".55" filter="url(#halo)">
    <path d="M14 262 C18 204 52 176 100 172 C148 176 182 204 186 262 Z"/>
    <path d="M86 136 L86 180 L114 180 L114 136 Z"/>
    <ellipse cx="100" cy="108" rx="27" ry="33"/>
    <path d="M70 104 C66 70 86 60 100 60 C114 60 134 70 130 104 L124 100 C120 80 80 80 76 100Z"/>
    <path d="M68 92 C70 66 130 66 132 92 Z"/>
  </g>
  <g fill="#0d0a08">
    <path d="M14 262 C18 204 52 176 100 172 C148 176 182 204 186 262 Z"/>
    <path d="M86 136 L86 180 L114 180 L114 136 Z"/>
    <ellipse cx="100" cy="108" rx="27" ry="33"/>
    <path d="M70 104 C66 70 86 60 100 60 C114 60 134 70 130 104 L124 100 C120 80 80 80 76 100Z"/>
    <path d="M68 92 C70 66 130 66 132 92 Z"/>
  </g>
  <path d="M126 74 C140 56 152 50 164 48 C152 58 144 66 132 80Z" fill="#efe2c0" filter="url(#glow)"/>
  <g fill="#efe2c0" opacity=".85">
    <ellipse cx="142" cy="212" rx="13" ry="15"/>
  </g>
  <path d="M136 208 q3 -3 6 0 M144 208 q3 -3 6 0 M136 218 Q143 226 150 218" fill="none" stroke="#3a2a1a" stroke-width="1.6"/>
  <rect width="200" height="262" filter="url(#grain)"/>
  <rect width="200" height="262" fill="url(#vig)"/>
  <rect x="5" y="5" width="190" height="252" rx="3" fill="none" stroke="#efe2c0" stroke-opacity=".25"/>
</svg>
