<svg xmlns="http://www.w3.org/2000/svg" viewBox="0 0 200 262" width="200" height="262">
  <title>Prof Hale, archaeologist</title>
  <defs>
    <radialGradient id="bg" cx="50%" cy="36%" r="78%">
      <stop offset="0" stop-color="#6e5c44"/>
      <stop offset="1" stop-color="#0e0b07"/>
    </radialGradient>
    <radialGradient id="vig" cx="50%" cy="45%" r="72%">
      <stop offset=".5" stop-color="#000" stop-opacity="0"/>
      <stop offset="1" stop-color="#000" stop-opacity=".8"/>
    </radialGradient>
    <filter id="halo" x="-20%" y="-20%" width="140%" height="140%">
      <feGaussianBlur stdDeviation="3.5"/>
    </filter>
    <filter id="glow" x="-60%" y="-60%" width="220%" height="220%">
      <feGaussianBlur stdDeviation="2.5" result="b"/>
      <feMerge>
        <feMergeNode in="b"/>
        <feMergeNode in="SourceGraphic"/>
      </feMerge>
    </filter>
    <filter id="grain">
      <feTurbulence type="fractalNoise" baseFrequency=".9" numOctaves="2" seed="3"/>
      <feColorMatrix values="0 0 0 0 .9  0 0 0 0 .8  0 0 0 0 .6  0 0 0 .07 0"/>
    </filter>
  </defs>
  <rect width="200" height="262" fill="url(#bg)"/>
  <g fill="#ead9b6" opacity=".55" filter="url(#halo)">
    <path d="M14 262 C18 204 52 176 100 172 C148 176 182 204 186 262 Z"/>
    <path d="M86 136 L86 180 L114 180 L114 136 Z"/>
    <ellipse cx="100" cy="108" rx="27" ry="33"/>
    <path d="M72 96 C68 70 132 70 128 96 C120 84 80 84 72 96Z"/>
  </g>
  <g fill="#0d0a08">
    <path d="M14 262 C18 204 52 176 100 172 C148 176 182 204 186 262 Z"/>
    <path d="M86 136 L86 180 L114 180 L114 136 Z"/>
    <ellipse cx="100" cy="108" rx="27" ry="33"/>
    <path d="M72 96 C68 70 132 70 128 96 C120 84 80 84 72 96Z"/>
  </g>
  <path d="M88 176 L100 184 L88 192Z M112 176 L100 184 L112 192Z" fill="#efe2c0"/>
  <path d="M134 178 C126 184 126 196 132 204 C124 216 128 238 146 244 C164 238 168 216 160 204 C166 196 166 184 158 178 L154 172 L138 172Z" fill="#8a5a3a" stroke="#c9a45c" stroke-width="1.5" filter="url(#glow)"/>
  <path d="M132 214 L160 214 M131 222 L161 222" stroke="#efe2c0" stroke-width="1.5" opacity=".8"/>
  <rect width="200" height="262" filter="url(#grain)"/>
  <rect width="200" height="262" fill="url(#vig)"/>
  <rect x="5" y="5" width="190" height="252" rx="3" fill="none" stroke="#efe2c0" stroke-opacity=".25"/>
</svg>
